<?xml version="1.0" encoding="utf-8"?>
<!-- Generator: Adobe Illustrator 24.1.1, SVG Export Plug-In . SVG Version: 6.00 Build 0)  -->
<svg version="1.1" id="Capa_1" xmlns="http://www.w3.org/2000/svg" xmlns:xlink="http://www.w3.org/1999/xlink" x="0px" y="0px"
	 viewBox="0 0 867.4 772.9" style="enable-background:new 0 0 867.4 772.9;" xml:space="preserve">
<style type="text/css">
	.st0{fill:#FFFFFF;}
	.st1{fill:#070707;}
	.st2{fill:#020202;}
	.st3{fill:#050505;}
</style>
<g id="Layer_2">
</g>
<g>
	<rect x="65.1" y="177.3" transform="matrix(0.7631 -0.6463 0.6463 0.7631 -164.2107 210.5357)" width="280" height="304"/>
	
		<rect x="74" y="205" transform="matrix(0.7631 -0.6463 0.6463 0.7631 -154.6789 195.7742)" class="st0" width="231.4" height="207.7"/>
</g>
<g>
	<rect x="141" y="44" transform="matrix(0.9124 -0.4093 0.4093 0.9124 -55.5928 132.2044)" width="280" height="304"/>
	
		<rect x="156.3" y="68.3" transform="matrix(0.9124 -0.4093 0.4093 0.9124 -46.6324 126.3877)" class="st0" width="231.4" height="207.7"/>
</g>
<path d="M366.4,67.2C380,83.2,378,107.3,362,121c-16.1,13.6-40.2,11.6-53.8-4.4c-13.6-16.1-11.6-40.2,4.5-53.8
	C328.7,49.1,352.8,51.1,366.4,67.2z"/>
<path d="M209.9,293.2l127.6-59.2C337.4,233.9,235.9,150.9,209.9,293.2z"/>
<g>
	<path d="M406.3,203.5c0,0-101.3-83.1-127.1,59L406.3,203.5"/>
	<path class="st0" d="M409.9,204l-133.3,61.9l0.7-3.7c6.2-34.3,17.5-58.6,33.4-72.1c40-33.9,96.3,11.4,96.9,11.9L409.9,204z
		 M281.7,259.2l120.8-56.1c-11-8.1-56.5-38-89.4-10C298.5,205.5,287.9,227.8,281.7,259.2z"/>
</g>
<polygon points="291.2,98.5 302.4,121.4 264.5,121.1 "/>
<polygon points="295.7,66.9 290,91.8 260.7,67.7 "/>
<polygon points="309.1,125.5 331.8,137 301.3,159.5 "/>
<polygon points="334,139.8 358.2,131.7 352.9,169.3 "/>
<polygon points="364.9,131.4 379.6,110.6 397.5,144 "/>
<polygon points="319.7,50 299.3,65.2 292.8,27.8 "/>
<g>
	<path class="st0" d="M829.4,617.6c0,19.8-16.1,36-36,36H338.9c-19.9,0-36-16.1-36-36V395.8c0-19.9,16.1-36,36-36h454.6
		c19.9,0,36,16.1,36,36L829.4,617.6L829.4,617.6z"/>
	<path class="st1" d="M793.5,659H338.9c-22.8,0-41.4-18.6-41.4-41.4V395.8c0-22.8,18.6-41.4,41.4-41.4h454.6
		c22.8,0,41.4,18.6,41.4,41.4v221.8C834.8,640.4,816.3,659,793.5,659z M338.9,365.2c-16.8,0-30.5,13.7-30.5,30.5v221.8
		c0,16.8,13.7,30.5,30.5,30.5h454.6c16.8,0,30.5-13.7,30.5-30.5V395.8c0-16.8-13.7-30.5-30.5-30.5L338.9,365.2L338.9,365.2z"/>
</g>
<g>
	<path class="st0" d="M845.7,357.1c0,19.9-17.3,36-38.6,36H319.8c-21.3,0-38.6-16.1-38.6-36v-31.8c0-19.9,17.3-36,38.6-36h487.4
		c21.3,0,38.6,16.1,38.6,36L845.7,357.1L845.7,357.1z"/>
	<path class="st1" d="M807.1,398.5H319.8c-24.3,0-44-18.6-44-41.4v-31.8c0-22.8,19.7-41.4,44-41.4h487.4c24.3,0,44,18.6,44,41.4
		v31.8C851.1,379.9,831.4,398.5,807.1,398.5z M319.8,294.8c-18.3,0-33.1,13.7-33.1,30.5v31.8c0,16.9,14.9,30.5,33.1,30.5h487.4
		c18.3,0,33.1-13.7,33.1-30.5v-31.8c0-16.8-14.9-30.5-33.1-30.5H319.8z"/>
</g>
<path class="st2" d="M867.4,737c0,19.9-16.1,36-36,36H300.9c-19.9,0-36-16.1-36-36v-97c0-19.9,16.1-36,36-36h530.5
	c19.9,0,36,16.1,36,36V737z"/>
<rect x="302.9" y="629" class="st2" width="526.5" height="106.7"/>
<path class="st0" d="M697.1,629c0,6.7-5.5,12.2-12.2,12.2h-154c-6.7,0-12.2-5.5-12.2-12.2v-10.8c0-6.7,5.5-12.2,12.2-12.2h154
	c6.7,0,12.2,5.5,12.2,12.2L697.1,629L697.1,629z"/>
<path class="st2" d="M801.4,701.7c0,15.7-12.7,28.4-28.4,28.4H359.4c-15.7,0-28.4-12.7-28.4-28.4v-25.2c0-15.7,12.7-28.4,28.4-28.4
	H773c15.7,0,28.4,12.7,28.4,28.4V701.7z"/>
<g>
	<path class="st0" d="M674.9,487.7c0,55.8-45.3,101.1-101.1,101.1c-55.8,0-101.1-45.3-101.1-101.1s45.3-101.1,101.1-101.1
		C629.6,386.6,674.9,431.9,674.9,487.7z"/>
	<path class="st2" d="M573.8,608c-66.3,0-120.3-54-120.3-120.3c0-66.3,54-120.3,120.3-120.3c66.3,0,120.3,54,120.3,120.3
		C694.1,554,640.1,608,573.8,608z M573.8,405.8c-45.2,0-82,36.8-82,82c0,45.2,36.8,82,82,82s82-36.8,82-82
		C655.7,442.5,619,405.8,573.8,405.8z"/>
</g>
<path class="st3" d="M805.2,369.5c0,4.4-3.6,8-8,8h-56.5c-4.4,0-8-3.6-8-8v-56.6c0-4.4,3.6-8,8-8h56.5c4.4,0,8,3.6,8,8V369.5z"/>
<path class="st3" d="M444,586.6c0,2.2-1.7,3.9-3.9,3.9h-67.4c-2.2,0-3.9-1.7-3.9-3.9V559c0-2.2,1.7-3.9,3.9-3.9h67.4
	c2.1,0,3.9,1.8,3.9,3.9L444,586.6L444,586.6z"/>
<g>
	<path class="st0" d="M768.9,555.1c0,15.9-12.9,28.8-28.8,28.8s-28.8-12.9-28.8-28.8c0-15.9,12.9-28.8,28.8-28.8
		S768.9,539.2,768.9,555.1z"/>
	<path class="st3" d="M740.2,588.8c-18.6,0-33.7-15.1-33.7-33.7s15.1-33.7,33.7-33.7s33.7,15.1,33.7,33.7S758.8,588.8,740.2,588.8z
		 M740.2,531.3c-13.1,0-23.8,10.7-23.8,23.8s10.7,23.8,23.8,23.8s23.8-10.7,23.8-23.8C764,542,753.3,531.3,740.2,531.3z"/>
</g>
</svg>
