<?xml version="1.0" encoding="utf-8"?>
<!-- Generator: Adobe Illustrator 24.1.1, SVG Export Plug-In . SVG Version: 6.00 Build 0)  -->
<svg version="1.1" id="Capa_1" xmlns="http://www.w3.org/2000/svg" xmlns:xlink="http://www.w3.org/1999/xlink" x="0px" y="0px"
	 viewBox="0 0 305 241.7" style="enable-background:new 0 0 305 241.7;" xml:space="preserve">
<style type="text/css">
	.st0{fill:#FFFFFF;stroke:#000000;stroke-width:3;stroke-linecap:round;stroke-linejoin:round;stroke-miterlimit:10;}
</style>
<path class="st0" d="M287.5,52.5h-270c-8.3,0-15-6.8-15-15v-20c0-8.3,6.8-15,15-15h270c8.3,0,15,6.8,15,15v20
	C302.5,45.8,295.8,52.5,287.5,52.5z"/>
<path class="st0" d="M287.5,239.2h-270c-8.3,0-15-6.8-15-15v-20c0-8.3,6.8-15,15-15h270c8.3,0,15,6.8,15,15v20
	C302.5,232.4,295.8,239.2,287.5,239.2z"/>
<path class="st0" d="M287.5,145.8h-270c-8.3,0-15-6.8-15-15v-20c0-8.3,6.8-15,15-15h270c8.3,0,15,6.8,15,15v20
	C302.5,139.1,295.8,145.8,287.5,145.8z"/>
</svg>
